<svg viewBox="0 0 100 100" xmlns="http://www.w3.org/2000/svg">
  <rect width="100" height="100" rx="20" fill="#0D1B3E"/>
  <g transform="translate(0,0)">
    <circle cx="50" cy="50" r="40" fill="none" stroke="#C9A84C" stroke-width="2"/>
    <circle cx="50" cy="50" r="34" fill="none" stroke="#C9A84C" stroke-width="0.8" opacity="0.28"/>
    <g transform="translate(50,50) scale(0.86)">
      <path d="M 0,5 C -10,-8 -8,-36 0,-42 C 8,-36 10,-8 0,5 Z" fill="#C9A84C"/>
      <path d="M 0,5 C -10,-8 -8,-36 0,-42 C 8,-36 10,-8 0,5 Z" fill="#C9A84C" opacity="0.82" transform="rotate(72)"/>
      <path d="M 0,5 C -10,-8 -8,-36 0,-42 C 8,-36 10,-8 0,5 Z" fill="#C9A84C" opacity="0.62" transform="rotate(144)"/>
      <path d="M 0,5 C -10,-8 -8,-36 0,-42 C 8,-36 10,-8 0,5 Z" fill="#C9A84C" opacity="0.62" transform="rotate(216)"/>
      <path d="M 0,5 C -10,-8 -8,-36 0,-42 C 8,-36 10,-8 0,5 Z" fill="#C9A84C" opacity="0.82" transform="rotate(288)"/>
      <circle cx="0" cy="0" r="9" fill="#0D1B3E"/>
      <circle cx="0" cy="0" r="5" fill="#C9A84C"/>
    </g>
  </g>
</svg>
